<svg xmlns="http://www.w3.org/2000/svg">
	<symbol id="add" viewBox="0 0 24 24">
		<path d="M11 11H3.993A.997.997 0 0 0 3 12c0 .556.445 1 .993 1H11v7.007c0 .548.448.993 1 .993.556 0 1-.445 1-.993V13h7.007A.997.997 0 0 0 21 12c0-.556-.445-1-.993-1H13V3.993A.997.997 0 0 0 12 3c-.556 0-1 .445-1 .993V11z" fill-rule="evenodd"/>
	</symbol>
	<symbol id="arrow-down" viewBox="0 0 24 24">
		<path d="M7.406 7.828L12 12.422l4.594-4.594L18 9.234l-6 6-6-6z"/>
	</symbol>
	<symbol id="arrow-left" viewBox="0 0 24 24">
		<path d="M15.422 16.078l-1.406 1.406-6-6 6-6 1.406 1.406-4.594 4.594z"/>
	</symbol>
	<symbol id="arrow-right-nopadding" viewBox="0 0 8 13">
		<path d="M.578 11.359l4.594-4.594L.578 2.171 1.984.765l6 6-6 6z" fill-rule="evenodd"/>
	</symbol>
	<symbol id="arrow-right" viewBox="0 0 24 24">
		<path d="M8.578 16.359l4.594-4.594-4.594-4.594 1.406-1.406 6 6-6 6z"/>
	</symbol>
	<symbol id="arrow-up" viewBox="0 0 24 24">
		<path d="M7.406 15.422L6 14.016l6-6 6 6-1.406 1.406L12 10.828z"/>
	</symbol>
	<symbol id="calendar" viewBox="0 0 24 24">
		<path d="M8.667 10.9H6.444v2.2h2.223v-2.2zm4.444 0H10.89v2.2h2.222v-2.2zm4.445 0h-2.223v2.2h2.223v-2.2zm2.222-7.7h-1.111V1h-2.223v2.2H7.556V1H5.333v2.2h-1.11c-1.234 0-2.212.99-2.212 2.2L2 20.8c0 1.21.989 2.2 2.222 2.2h15.556C21 23 22 22.01 22 20.8V5.4c0-1.21-1-2.2-2.222-2.2zm0 17.6H4.222V8.7h15.556v12.1z" fill-rule="evenodd"/>
	</symbol>
	<symbol id="chevron-double-left" viewBox="0 0 24 24">
		<path d="M11.746 11.952l8.059 8.952 1.814-1.633-6.595-7.313 6.595-7.325L19.805 3l-.816.907-7.243 8.045zM2 12.048L10.059 21l1.813-1.633-6.594-7.312 6.594-7.326-1.813-1.633-.817.907L2 12.048z" fill-rule="evenodd"/>
	</symbol>
	<symbol id="chevron-double-right" viewBox="0 0 24 24">
		<path d="M11.872 11.952l-8.058 8.952L2 19.27l6.595-7.313L2 4.633 3.814 3l.816.907 7.242 8.045zm9.747.096L13.559 21l-1.813-1.633 6.595-7.312-6.595-7.326 1.814-1.633.816.907 7.243 8.045z" fill-rule="evenodd"/>
	</symbol>
	<symbol id="chevron-down" viewBox="0 0 24 24">
		<path d="M7 10l5 4.501L17 10" stroke-width="1.5" fill-rule="evenodd" stroke-linecap="square"/>
	</symbol>
	<symbol id="chevron-left copy" viewBox="0 0 24 24">
		<path d="M10 11.946l8.954 9.946 1.114-1.004-8.047-8.945 8.047-8.94L18.954 2 10 11.946zm-6 0l8.954 9.946 1.114-1.004-8.047-8.945 8.047-8.94L12.954 2 4 11.946z" fill-rule="evenodd"/>
	</symbol>
	<symbol id="chevron-left" viewBox="0 0 24 24">
		<path d="M7 12l8.102 9 1.823-1.641-6.61-7.374 6.61-7.344L15.102 3l-.82.912z" fill-rule="evenodd"/>
	</symbol>
	<symbol id="chevron-right" viewBox="0 0 24 24">
		<path d="M16.925 12l-8.102 9L7 19.359l6.61-7.374L7 4.641 8.823 3l.821.912z" fill-rule="evenodd"/>
	</symbol>
	<symbol id="close" viewBox="0 0 24 24">
		<path d="M10.089 12l-6.696 6.696a1.347 1.347 0 0 0 .006 1.905c.532.531 1.38.53 1.905.006L12 13.911l6.696 6.696a1.347 1.347 0 0 0 1.905-.006c.531-.532.53-1.38.006-1.905L13.911 12l6.696-6.696a1.347 1.347 0 0 0-.006-1.905 1.344 1.344 0 0 0-1.905-.006L12 10.089 5.304 3.393a1.347 1.347 0 0 0-1.905.006 1.344 1.344 0 0 0-.006 1.905L10.089 12z" fill-rule="evenodd"/>
	</symbol>
	<symbol id="eye-close" viewBox="0 0 18 15">
		<path d="M9 3.25c2.07 0 3.75 1.68 3.75 3.75 0 .488-.098.945-.27 1.373l2.19 2.19A8.863 8.863 0 0 0 17.242 7c-1.297-3.293-4.5-5.625-8.25-5.625-1.05 0-2.055.188-2.985.525l1.62 1.62A3.64 3.64 0 0 1 9 3.25zM1.5 1.203l1.71 1.71.345.345A8.853 8.853 0 0 0 .75 7c1.297 3.293 4.5 5.625 8.25 5.625a8.832 8.832 0 0 0 3.285-.63l.315.315 2.197 2.19.953-.953L2.453.25l-.953.953zM5.647 5.35L6.81 6.512c-.037.158-.06.323-.06.488A2.247 2.247 0 0 0 9 9.25c.165 0 .33-.023.488-.06l1.162 1.162A3.717 3.717 0 0 1 9 10.75c-2.07 0-3.75-1.68-3.75-3.75 0-.592.15-1.147.397-1.65zm3.233-.585l2.362 2.362.015-.12a2.247 2.247 0 0 0-2.25-2.25l-.127.008z" fill-rule="evenodd"/>
	</symbol>
	<symbol id="feather-check" viewBox="0 0 24 24">
		<path d="M21 5q.43 0 .715.285T22 6q0 .422-.289.711l-12 12Q9.422 19 9 19t-.711-.289l-6-6Q2 12.422 2 12q0-.43.285-.715T3 11q.422 0 .711.289L9 16.586 20.289 5.289Q20.578 5 21 5z"/>
	</symbol>
	<symbol id="feather-circle-check" viewBox="0 0 24 24">
		<path d="M12 1q2.242 0 4.277.871t3.508 2.344 2.344 3.508T23 12t-.871 4.277-2.344 3.508-3.508 2.344T12 23t-4.277-.871-3.508-2.344-2.344-3.508T1 12t.871-4.277 2.344-3.508 3.508-2.344T12 1zm0 2q-1.828 0-3.496.715T5.633 5.633 3.715 8.504 3 12t.715 3.496 1.918 2.871 2.871 1.918T12 21t3.496-.715 2.871-1.918 1.918-2.871T21 12t-.715-3.496-1.918-2.871-2.871-1.918T12 3zm3.367 5.992q.414 0 .707.293t.293.707-.297.711l-4.242 4.242q-.289.289-.703.289-.422 0-.711-.289l-2.125-2.117Q8 12.539 8 12.117q0-.414.293-.707T9 11.117t.711.297l1.414 1.414 3.531-3.539q.297-.297.711-.297z"/>
	</symbol>
	<symbol id="feather-circle-cross" viewBox="0 0 24 24">
		<path d="M12 1q2.242 0 4.277.871t3.508 2.344 2.344 3.508T23 12t-.871 4.277-2.344 3.508-3.508 2.344T12 23t-4.277-.871-3.508-2.344-2.344-3.508T1 12t.871-4.277 2.344-3.508 3.508-2.344T12 1zm0 2q-1.828 0-3.496.715T5.633 5.633 3.715 8.504 3 12t.715 3.496 1.918 2.871 2.871 1.918T12 21t3.496-.715 2.871-1.918 1.918-2.871T21 12t-.715-3.496-1.918-2.871-2.871-1.918T12 3zm2.828 5.164q.414 0 .711.293t.297.707-.297.711L13.414 12l2.125 2.117q.297.297.297.703 0 .414-.297.707t-.711.293-.703-.289L12 13.414l-2.117 2.117q-.289.289-.711.289-.414 0-.707-.289t-.293-.703q0-.422.289-.711L10.586 12 8.461 9.875q-.289-.289-.289-.703t.293-.711.707-.297.711.297L12 10.586l2.125-2.125q.297-.297.703-.297z"/>
	</symbol>
	<symbol id="feather-circle-plus" viewBox="0 0 24 24">
		<path d="M12 1q2.242 0 4.277.871t3.508 2.344 2.344 3.508T23 12t-.871 4.277-2.344 3.508-3.508 2.344T12 23t-4.277-.871-3.508-2.344-2.344-3.508T1 12t.871-4.277 2.344-3.508 3.508-2.344T12 1zm0 2q-1.828 0-3.496.715T5.633 5.633 3.715 8.504 3 12t.715 3.496 1.918 2.871 2.871 1.918T12 21t3.496-.715 2.871-1.918 1.918-2.871T21 12t-.715-3.496-1.918-2.871-2.871-1.918T12 3zm0 4q.414 0 .707.293T13 8v3h3q.414 0 .707.293T17 12t-.293.707T16 13h-3v3q0 .414-.293.707T12 17t-.707-.293T11 16v-3H8q-.414 0-.707-.293T7 12t.293-.707T8 11h3V8q0-.414.293-.707T12 7z"/>
	</symbol>
	<symbol id="feather-cross" viewBox="0 0 24 24">
		<path d="M19 4q.43 0 .715.285T20 5q0 .422-.289.711L13.414 12l6.297 6.289Q20 18.578 20 19q0 .43-.285.715T19 20q-.422 0-.711-.289L12 13.414l-6.289 6.297Q5.422 20 5 20q-.43 0-.715-.285T4 19q0-.422.289-.711L10.586 12 4.289 5.711Q4 5.422 4 5q0-.43.285-.715T5 4q.422 0 .711.289L12 10.586l6.289-6.297Q18.578 4 19 4z"/>
	</symbol>
	<symbol id="feather-fast-forward" viewBox="0 0 24 24">
		<path d="M11 4q.414 0 .703.289l7 7Q19 11.586 19 12t-.297.711l-7 7Q11.414 20 11 20t-.707-.293T10 19q0-.422.289-.711L16.578 12l-6.289-6.289Q10 5.422 10 5q0-.43.285-.715T11 4zM5 4q.414 0 .703.289l7 7Q13 11.586 13 12t-.297.711l-7 7Q5.414 20 5 20t-.707-.293T4 19q0-.422.289-.711L10.578 12 4.289 5.711Q4 5.422 4 5q0-.43.285-.715T5 4z"/>
	</symbol>
	<symbol id="feather-plus" viewBox="0 0 24 24">
		<path d="M12 2q.414 0 .707.293T13 3v8h8q.414 0 .707.293T22 12t-.293.707T21 13h-8v8q0 .414-.293.707T12 22t-.707-.293T11 21v-8H3q-.414 0-.707-.293T2 12t.293-.707T3 11h8V3q0-.414.293-.707T12 2z"/>
	</symbol>
	<symbol id="feather-rewind" viewBox="0 0 24 24">
		<path d="M18 4q.414 0 .707.293T19 5t-.297.711L12.414 12l6.289 6.289Q19 18.586 19 19t-.293.707T18 20q-.422 0-.711-.289l-7-7Q10 12.422 10 12t.289-.711l7-7Q17.578 4 18 4zm-6 0q.414 0 .707.293T13 5t-.297.711L6.414 12l6.289 6.289Q13 18.586 13 19t-.293.707T12 20q-.422 0-.711-.289l-7-7Q4 12.422 4 12t.289-.711l7-7Q11.578 4 12 4z"/>
	</symbol>
	<symbol id="lib-a" viewBox="0 0 24 24">
		<path d="M18 2H6c-1.1 0-2 .9-2 2v16c0 1.1.9 2 2 2h12c1.1 0 2-.9 2-2V4c0-1.1-.9-2-2-2zM6 4h5v8l-2.5-1.5L6 12V4z" fill-rule="evenodd"/>
	</symbol>
	<symbol id="lib-b" viewBox="0 0 24 24">
		<path d="M17.66 7.65L12 2 6.34 7.65A8.02 8.02 0 0 0 4 13.29c0 2 .78 4.11 2.34 5.67a7.99 7.99 0 0 0 11.32 0C19.22 17.4 20 15.29 20 13.29s-.78-4.08-2.34-5.64zM6 13.65c.01-2 .62-3.27 1.76-4.4L12 4.92l4.24 4.38c1.14 1.12 1.75 2.35 1.76 4.35H6z" fill-rule="evenodd"/>
	</symbol>
	<symbol id="lib-c" viewBox="0 0 24 24">
		<path d="M22 9V7h-2V5c0-1.1-.9-2-2-2H4c-1.1 0-2 .9-2 2v14c0 1.1.9 2 2 2h14c1.1 0 2-.9 2-2v-2h2v-2h-2v-2h2v-2h-2V9h2zm-4 10H4V5h14v14zM6 13h5v4H6v-4zm6-6h4v3h-4V7zM6 7h5v5H6V7zm6 4h4v6h-4v-6z" fill-rule="evenodd"/>
	</symbol>
	<symbol id="lib-d" viewBox="0 0 24 24">
		<path d="M19.35 10.04A7.49 7.49 0 0 0 12 4C9.11 4 6.6 5.64 5.35 8.04A5.994 5.994 0 0 0 0 14c0 3.31 2.69 6 6 6h13c2.76 0 5-2.24 5-5 0-2.64-2.05-4.78-4.65-4.96zM17 13l-5 5-5-5h3V9h4v4h3z" fill-rule="evenodd"/>
	</symbol>
	<symbol id="radio-normal" viewBox="0 0 21 21">
		<circle cx="10.5" cy="10.5" r="9.5" fill-rule="evenodd"/>
	</symbol>
	<symbol id="setting" viewBox="0 0 18 18">
		<path d="M15.877 9.882c.037-.288.064-.576.064-.882 0-.306-.027-.594-.064-.882l1.952-1.485a.446.446 0 0 0 .11-.576l-1.85-3.114c-.11-.198-.36-.27-.564-.198l-2.304.9a6.83 6.83 0 0 0-1.563-.882L11.306.378A.447.447 0 0 0 10.853 0H7.152a.447.447 0 0 0-.454.378l-.351 2.385a7.16 7.16 0 0 0-1.564.882l-2.304-.9a.457.457 0 0 0-.564.198L.065 6.057a.436.436 0 0 0 .11.576l1.952 1.485A6.946 6.946 0 0 0 2.063 9c0 .297.027.594.064.882L.175 11.367a.446.446 0 0 0-.11.576l1.85 3.114c.11.198.36.27.564.198l2.304-.9c.481.36 1 .657 1.564.882l.351 2.385a.447.447 0 0 0 .454.378h3.7a.447.447 0 0 0 .454-.378l.352-2.385a7.16 7.16 0 0 0 1.563-.882l2.304.9c.213.081.453 0 .564-.198l1.85-3.114a.446.446 0 0 0-.11-.576l-1.952-1.485zM9.002 12.15c-1.786 0-3.238-1.413-3.238-3.15 0-1.737 1.452-3.15 3.238-3.15S12.24 7.263 12.24 9c0 1.737-1.452 3.15-3.238 3.15z" fill-rule="evenodd"/>
	</symbol>
	<symbol id="sg-search" viewBox="0 0 24 24">
		<path d="M14.282 15.962a7.142 7.142 0 1 1 1.68-1.68l4.693 4.692a1.17 1.17 0 0 1 0 1.66l-.02.02a1.175 1.175 0 0 1-1.66 0l-4.693-4.692zm-4.14-.359a5.461 5.461 0 1 0 0-10.923 5.461 5.461 0 0 0 0 10.923z" fill-rule="evenodd"/>
	</symbol>
	<symbol id="tera-check" viewBox="0 0 24 24">
		<path d="M10 18.5c-.384 0-.768-.146-1.06-.44l-6-6a1.5 1.5 0 0 1 2.12-2.12L10 14.878l8.94-8.94a1.5 1.5 0 0 1 2.12 2.122l-10 10a1.491 1.491 0 0 1-1.06.439z" fill-rule="evenodd"/>
	</symbol>
	<symbol id="tera-close" viewBox="0 0 24 24">
		<path d="M9.879 12l-3.94-3.94a1.5 1.5 0 1 1 2.122-2.12L12 9.878l3.94-3.94a1.5 1.5 0 0 1 2.12 2.122L14.122 12l3.94 3.94a1.5 1.5 0 0 1-2.122 2.12L12 14.122l-3.94 3.94a1.5 1.5 0 0 1-2.12-2.122L9.878 12z" fill-rule="evenodd"/>
	</symbol>
	<symbol id="tera-exclamation" viewBox="0 0 24 24">
		<path d="M10.38 16.038L10.09 3h3.25l-.305 13.038h-2.653zM10 20.024c0-.482.157-.882.47-1.2.313-.317.74-.475 1.282-.475s.969.158 1.282.476c.313.317.47.717.47 1.2 0 .465-.152.854-.457 1.167-.305.314-.736.47-1.295.47-.559 0-.99-.156-1.295-.47-.305-.313-.457-.702-.457-1.168z" fill-rule="evenodd"/>
	</symbol>
	<symbol id="tera-question" viewBox="0 0 24 24">
		<path d="M10.682 16.305c0-1.126.14-2.023.419-2.692.279-.668.831-1.403 1.656-2.202.826-.8 1.348-1.37 1.568-1.708a2.998 2.998 0 0 0 .508-1.676c0-.795-.197-1.402-.59-1.821-.394-.42-.972-.629-1.733-.629-.728 0-1.314.205-1.759.616-.444.41-.666.967-.666 1.67H7c.017-1.499.527-2.684 1.53-3.555C9.533 3.436 10.86 3 12.51 3c1.7 0 3.028.432 3.98 1.295s1.428 2.07 1.428 3.618c0 1.38-.643 2.738-1.93 4.075l-1.561 1.536c-.559.635-.847 1.562-.864 2.78h-2.881zm-.216 3.948c0-.5.156-.904.47-1.212.313-.31.736-.464 1.27-.464.54 0 .968.159 1.281.476.313.318.47.718.47 1.2 0 .465-.152.855-.457 1.168-.305.313-.736.47-1.295.47-.559 0-.988-.157-1.288-.47-.301-.313-.451-.703-.451-1.168z" fill-rule="evenodd"/>
	</symbol>
	<symbol id="trash" viewBox="0 0 14 18">
		<path d="M1 16c0 1.1.9 2 2 2h8c1.1 0 2-.9 2-2V4H1v12zM14 1h-3.5l-1-1h-5l-1 1H0v2h14V1z" fill-rule="evenodd"/>
	</symbol>
</svg>
