<?xml version="1.0" encoding="UTF-8" standalone="no"?>
<svg width="24px" height="24px" viewBox="0 0 24 24" version="1.1" xmlns="http://www.w3.org/2000/svg" xmlns:xlink="http://www.w3.org/1999/xlink">
    <!-- Generator: Sketch 3.7.2 (28276) - http://www.bohemiancoding.com/sketch -->
    <title>calendar</title>
    <desc>Created with Sketch.</desc>
    <defs></defs>
    <g id="icons-colorless" stroke="none" stroke-width="1" fill="none" fill-rule="evenodd">
        <g id="calendar" fill="#000000">
            <path d="M8.66666667,10.9 L6.44444444,10.9 L6.44444444,13.1 L8.66666667,13.1 L8.66666667,10.9 L8.66666667,10.9 Z M13.1111111,10.9 L10.8888889,10.9 L10.8888889,13.1 L13.1111111,13.1 L13.1111111,10.9 L13.1111111,10.9 Z M17.5555556,10.9 L15.3333333,10.9 L15.3333333,13.1 L17.5555556,13.1 L17.5555556,10.9 L17.5555556,10.9 Z M19.7777778,3.2 L18.6666667,3.2 L18.6666667,1 L16.4444444,1 L16.4444444,3.2 L7.55555556,3.2 L7.55555556,1 L5.33333333,1 L5.33333333,3.2 L4.22222222,3.2 C2.98888889,3.2 2.01111111,4.19 2.01111111,5.4 L2,20.8 C2,22.01 2.98888889,23 4.22222222,23 L19.7777778,23 C21,23 22,22.01 22,20.8 L22,5.4 C22,4.19 21,3.2 19.7777778,3.2 L19.7777778,3.2 Z M19.7777778,20.8 L4.22222222,20.8 L4.22222222,8.7 L19.7777778,8.7 L19.7777778,20.8 L19.7777778,20.8 Z" id="Shape"></path>
        </g>
    </g>
</svg>