<?xml version="1.0" encoding="UTF-8" standalone="no"?>
<svg width="24px" height="24px" viewBox="0 0 24 24" version="1.1" xmlns="http://www.w3.org/2000/svg" xmlns:xlink="http://www.w3.org/1999/xlink">
    <!-- Generator: Sketch 3.8 (29681) - http://www.bohemiancoding.com/sketch -->
    <title>close</title>
    <desc>Created with Sketch.</desc>
    <defs></defs>
    <g id="icons-colorless" stroke="none" stroke-width="1" fill="none" fill-rule="evenodd">
        <g id="close" fill="#28384A">
            <path d="M10.0886838,12 L3.39276754,18.6959163 C2.86863552,19.2200483 2.8712817,20.0731275 3.3990771,20.6009229 C3.93055219,21.132398 4.77977302,21.1315432 5.30408374,20.6072325 L12,13.9113162 L18.6959163,20.6072325 C19.2200483,21.1313645 20.0731275,21.1287183 20.6009229,20.6009229 C21.132398,20.0694478 21.1315432,19.220227 20.6072325,18.6959163 L13.9113162,12 L20.6072325,5.30408374 C21.1313645,4.77995172 21.1287183,3.92687249 20.6009229,3.3990771 C20.0694478,2.86760201 19.220227,2.86845682 18.6959163,3.39276754 L12,10.0886838 L5.30408374,3.39276754 C4.77995172,2.86863552 3.92687249,2.8712817 3.3990771,3.3990771 C2.86760201,3.93055219 2.86845682,4.77977302 3.39276754,5.30408374 L10.0886838,12 L10.0886838,12 Z" id="Combined-Shape" transform="translate(12.000000, 12.000000) rotate(-360.000000) translate(-12.000000, -12.000000) "></path>
        </g>
    </g>
</svg>