<?xml version="1.0" encoding="UTF-8" standalone="no"?>
<svg width="18px" height="15px" viewBox="0 0 18 15" version="1.1" xmlns="http://www.w3.org/2000/svg" xmlns:xlink="http://www.w3.org/1999/xlink">
    <!-- Generator: Sketch 3.8.3 (29802) - http://www.bohemiancoding.com/sketch -->
    <title>Shape</title>
    <desc>Created with Sketch.</desc>
    <defs></defs>
    <g id="icons-colorless" stroke="none" stroke-width="1" fill="none" fill-rule="evenodd">
        <g id="eye-close" transform="translate(-3.000000, -5.000000)" fill="#000000">
            <g id="ic_visibility_off_black_24px" transform="translate(3.000000, 3.000000)">
                <g id="Group">
                    <path d="M9,5.25 C11.07,5.25 12.75,6.93 12.75,9 C12.75,9.4875 12.6525,9.945 12.48,10.3725 L14.67,12.5625 C15.8025,11.6175 16.695,10.395 17.2425,9 C15.945,5.7075 12.7425,3.375 8.9925,3.375 C7.9425,3.375 6.9375,3.5625 6.0075,3.9 L7.6275,5.52 C8.055,5.3475 8.5125,5.25 9,5.25 L9,5.25 Z M1.5,3.2025 L3.21,4.9125 L3.555,5.2575 C2.31,6.225 1.335,7.515 0.75,9 C2.0475,12.2925 5.25,14.625 9,14.625 C10.1625,14.625 11.2725,14.4 12.285,13.995 L12.6,14.31 L14.7975,16.5 L15.75,15.5475 L2.4525,2.25 L1.5,3.2025 L1.5,3.2025 Z M5.6475,7.35 L6.81,8.5125 C6.7725,8.67 6.75,8.835 6.75,9 C6.75,10.245 7.755,11.25 9,11.25 C9.165,11.25 9.33,11.2275 9.4875,11.19 L10.65,12.3525 C10.1475,12.6 9.5925,12.75 9,12.75 C6.93,12.75 5.25,11.07 5.25,9 C5.25,8.4075 5.4,7.8525 5.6475,7.35 L5.6475,7.35 Z M8.88,6.765 L11.2425,9.1275 L11.2575,9.0075 C11.2575,7.7625 10.2525,6.7575 9.0075,6.7575 L8.88,6.765 L8.88,6.765 Z" id="Shape"></path>
                </g>
            </g>
        </g>
    </g>
</svg>