<?xml version="1.0" encoding="UTF-8" standalone="no"?>
<svg width="24px" height="24px" viewBox="0 0 24 24" version="1.1" xmlns="http://www.w3.org/2000/svg" xmlns:xlink="http://www.w3.org/1999/xlink">
    <!-- Generator: Sketch 3.7.1 (28215) - http://www.bohemiancoding.com/sketch -->
    <title>lib-b</title>
    <desc>Created with Sketch.</desc>
    <defs></defs>
    <g id="icons" stroke="none" stroke-width="1" fill="none" fill-rule="evenodd">
        <g id="lib-b" fill="#000000">
            <path d="M17.66,7.65 L12,2 L6.34,7.65 C4.78,9.21 4,11.29 4,13.29 C4,15.29 4.78,17.4 6.34,18.96 C7.9,20.52 9.95,21.31 12,21.31 C14.05,21.31 16.1,20.52 17.66,18.96 C19.22,17.4 20,15.29 20,13.29 C20,11.29 19.22,9.21 17.66,7.65 L17.66,7.65 Z M6,13.65 C6.01,11.65 6.62,10.38 7.76,9.25 L12,4.92 L16.24,9.3 C17.38,10.42 17.99,11.65 18,13.65 L6,13.65 L6,13.65 Z" id="Shape"></path>
        </g>
    </g>
</svg>