<?xml version="1.0" encoding="UTF-8" standalone="no"?>
<svg width="24px" height="24px" viewBox="0 0 24 24" version="1.1" xmlns="http://www.w3.org/2000/svg" xmlns:xlink="http://www.w3.org/1999/xlink">
    <!-- Generator: Sketch 39.1 (31720) - http://www.bohemiancoding.com/sketch -->
    <title>Artboard 2</title>
    <desc>Created with Sketch.</desc>
    <defs></defs>
    <g id="Page-1" stroke="none" stroke-width="1" fill="none" fill-rule="evenodd">
        <g id="Artboard-2" fill="#28384A">
            <path d="M14.2818031,15.9622537 C13.1140017,16.7943825 11.6851168,17.2838303 10.1419152,17.2838303 C6.19754413,17.2838303 3,14.0862862 3,10.1419152 C3,6.19754413 6.19754413,3 10.1419152,3 C14.0862862,3 17.2838303,6.19754413 17.2838303,10.1419152 C17.2838303,11.6851168 16.7943825,13.1140017 15.9622537,14.2818031 L20.654745,18.9742944 C21.1170379,19.4365872 21.1131835,20.1762797 20.6545778,20.6348854 L20.6348854,20.6545778 C20.1774527,21.1120104 19.4328077,21.1132584 18.9742944,20.654745 L14.2818031,15.9622537 L14.2818031,15.9622537 L14.2818031,15.9622537 Z M10.1419152,15.6033797 C13.1581989,15.6033797 15.6033797,13.1581989 15.6033797,10.1419152 C15.6033797,7.1256314 13.1581989,4.68045063 10.1419152,4.68045063 C7.1256314,4.68045063 4.68045063,7.1256314 4.68045063,10.1419152 C4.68045063,13.1581989 7.1256314,15.6033797 10.1419152,15.6033797 L10.1419152,15.6033797 L10.1419152,15.6033797 Z" id="search"></path>
        </g>
    </g>
</svg>