<?xml version="1.0" encoding="UTF-8" standalone="no"?>
<svg width="24px" height="24px" viewBox="0 0 24 24" version="1.1" xmlns="http://www.w3.org/2000/svg" xmlns:xlink="http://www.w3.org/1999/xlink">
    <!-- Generator: Sketch 3.8.3 (29802) - http://www.bohemiancoding.com/sketch -->
    <title>tera-exclamation</title>
    <desc>Created with Sketch.</desc>
    <defs></defs>
    <g id="icons-colorless" stroke="none" stroke-width="1" fill="none" fill-rule="evenodd">
        <g id="tera-exclamation" fill="#000000">
            <path d="M10.3808594,16.0380859 L10.0888672,3 L13.3388672,3 L13.0341797,16.0380859 L10.3808594,16.0380859 Z M10,20.0244141 C10,19.5419898 10.156574,19.1420914 10.4697266,18.824707 C10.7828792,18.5073226 11.2102838,18.3486328 11.7519531,18.3486328 C12.2936225,18.3486328 12.7210271,18.5073226 13.0341797,18.824707 C13.3473323,19.1420914 13.5039062,19.5419898 13.5039062,20.0244141 C13.5039062,20.4899112 13.351564,20.8792302 13.046875,21.1923828 C12.742186,21.5055354 12.3105497,21.6621094 11.7519531,21.6621094 C11.1933566,21.6621094 10.7617203,21.5055354 10.4570312,21.1923828 C10.1523422,20.8792302 10,20.4899112 10,20.0244141 L10,20.0244141 L10,20.0244141 Z" id="!"></path>
        </g>
    </g>
</svg>