<?xml version="1.0" encoding="UTF-8" standalone="no"?>
<svg width="24px" height="24px" viewBox="0 0 24 24" version="1.1" xmlns="http://www.w3.org/2000/svg" xmlns:xlink="http://www.w3.org/1999/xlink">
    <!-- Generator: Sketch 3.8.2 (29753) - http://www.bohemiancoding.com/sketch -->
    <title>tera-question</title>
    <desc>Created with Sketch.</desc>
    <defs></defs>
    <g id="icons-colorless" stroke="none" stroke-width="1" fill="none" fill-rule="evenodd">
        <g id="tera-question" fill="#000000">
            <path d="M10.6816406,16.3046875 C10.6816406,15.1790308 10.8212877,14.2819044 11.1005859,13.6132812 C11.3798842,12.9446581 11.9321248,12.2104532 12.7573242,11.4106445 C13.5825237,10.6108358 14.1051421,10.0416684 14.3251953,9.703125 C14.6637387,9.18684638 14.8330078,8.62825821 14.8330078,8.02734375 C14.8330078,7.23176686 14.6362324,6.62451381 14.2426758,6.20556641 C13.8491191,5.786619 13.2714882,5.57714844 12.5097656,5.57714844 C11.7818974,5.57714844 11.195803,5.78238727 10.7514648,6.19287109 C10.3071267,6.60335492 10.0849609,7.15982722 10.0849609,7.86230469 L7,7.86230469 C7.01692717,6.36425032 7.52685045,5.17936634 8.52978516,4.30761719 C9.53271986,3.43586804 10.8593667,3 12.5097656,3 C14.210946,3 15.5375929,3.43163631 16.4897461,4.29492188 C17.4418993,5.15820744 17.9179688,6.36425007 17.9179688,7.91308594 C17.9179688,9.29265013 17.274746,10.651035 15.9882812,11.9882812 L14.4267578,13.5244141 C13.8681613,14.1591829 13.5804037,15.0859314 13.5634766,16.3046875 L10.6816406,16.3046875 L10.6816406,16.3046875 Z M10.4658203,20.2529297 C10.4658203,19.7535782 10.6223943,19.3494482 10.9355469,19.0405273 C11.2486995,18.7316065 11.6718723,18.5771484 12.2050781,18.5771484 C12.7467475,18.5771484 13.1741521,18.7358383 13.4873047,19.0532227 C13.8004573,19.3706071 13.9570312,19.7705054 13.9570312,20.2529297 C13.9570312,20.7184268 13.804689,21.1077458 13.5,21.4208984 C13.195311,21.734051 12.7636747,21.890625 12.2050781,21.890625 C11.6464816,21.890625 11.2169611,21.734051 10.9165039,21.4208984 C10.6160467,21.1077458 10.4658203,20.7184268 10.4658203,20.2529297 L10.4658203,20.2529297 L10.4658203,20.2529297 Z" id="?"></path>
        </g>
    </g>
</svg>