<?xml version="1.0" encoding="UTF-8" standalone="no"?>
<svg width="24px" height="24px" viewBox="0 0 24 24" version="1.1" xmlns="http://www.w3.org/2000/svg" xmlns:xlink="http://www.w3.org/1999/xlink">
    <!-- Generator: Sketch 3.8.2 (29753) - http://www.bohemiancoding.com/sketch -->
    <title>tera-close</title>
    <desc>Created with Sketch.</desc>
    <defs></defs>
    <g id="icons-colorless" stroke="none" stroke-width="1" fill="none" fill-rule="evenodd">
        <g id="tera-close" fill="#000000">
            <path d="M9.87867966,12 L5.93933983,8.06066017 C5.35355339,7.47487373 5.35355339,6.52512627 5.93933983,5.93933983 C6.52512627,5.35355339 7.47487373,5.35355339 8.06066017,5.93933983 L12,9.87867966 L15.9393398,5.93933983 C16.5251263,5.35355339 17.4748737,5.35355339 18.0606602,5.93933983 C18.6464466,6.52512627 18.6464466,7.47487373 18.0606602,8.06066017 L14.1213203,12 L18.0606602,15.9393398 C18.6464466,16.5251263 18.6464466,17.4748737 18.0606602,18.0606602 C17.4748737,18.6464466 16.5251263,18.6464466 15.9393398,18.0606602 L12,14.1213203 L8.06066017,18.0606602 C7.47487373,18.6464466 6.52512627,18.6464466 5.93933983,18.0606602 C5.35355339,17.4748737 5.35355339,16.5251263 5.93933983,15.9393398 L9.87867966,12 L9.87867966,12 Z" id="Combined-Shape"></path>
        </g>
    </g>
</svg>