<?xml version="1.0" encoding="UTF-8" standalone="no"?>
<svg width="184px" height="26px" viewBox="0 0 184 26" version="1.1" xmlns="http://www.w3.org/2000/svg" xmlns:xlink="http://www.w3.org/1999/xlink">
    <!-- Generator: Sketch 3.8.2 (29753) - http://www.bohemiancoding.com/sketch -->
    <title>logo</title>
    <desc>Created with Sketch.</desc>
    <defs></defs>
    <g id="Page-3" stroke="none" stroke-width="1" fill="none" fill-rule="evenodd">
        <g id="logo">
            <g id="Group" transform="translate(2.000000, 2.000000)">
                <path d="M1.98,15.63 C1.98,20.7 5.85,21.3 7.8,21.3 C8.4,21.3 8.82,21.24 8.82,21.24 L8.82,18.66 C8.82,18.66 8.55,18.72 8.13,18.72 C7.02,18.72 4.89,18.33 4.89,15.3 L4.89,8.55 L8.55,8.55 L8.55,6.21 L4.89,6.21 L4.89,1.83 L2.07,1.83 L2.07,6.21 L0,6.21 L0,8.55 L1.98,8.55 L1.98,15.63 Z M11.99,21.18 L14.9,21.18 L14.9,14.97 C14.9,14.04 14.99,13.11 15.26,12.24 C15.95,9.99 17.66,8.67 19.52,8.67 C19.97,8.67 20.36,8.76 20.36,8.76 L20.36,5.88 C20.36,5.88 20,5.82 19.61,5.82 C17.27,5.82 15.5,7.56 14.81,9.78 L14.75,9.78 C14.75,9.78 14.81,9.27 14.81,8.64 L14.81,6 L11.99,6 L11.99,21.18 Z M21.91,16.92 C21.91,19.95 24.46,21.54 27.07,21.54 C30.7,21.54 31.93,18.54 31.93,18.54 L31.99,18.54 C31.99,18.54 31.93,19.05 31.93,19.74 L31.93,21.18 L34.63,21.18 L34.63,11.58 C34.63,7.74 32.47,5.64 28.63,5.64 C25.15,5.64 22.96,7.44 22.96,7.44 L24.16,9.57 C24.16,9.57 26.05,8.1 28.39,8.1 C30.31,8.1 31.72,8.94 31.72,11.43 L31.72,11.7 L31.06,11.7 C28.51,11.7 21.91,11.91 21.91,16.92 L21.91,16.92 Z M24.85,16.77 C24.85,14.04 28.81,13.89 31,13.89 L31.75,13.89 L31.75,14.37 C31.75,16.62 30.16,19.2 27.7,19.2 C25.81,19.2 24.85,18 24.85,16.77 L24.85,16.77 Z M42.48,21.18 L45.84,21.18 L51.45,6 L48.39,6 L44.7,16.26 C44.4,17.1 44.19,18.33 44.16,18.33 L44.1,18.33 C44.07,18.33 43.89,17.1 43.59,16.26 L39.9,6 L36.81,6 L42.48,21.18 Z M52.79,13.59 C52.79,18.09 56.06,21.54 60.83,21.54 C64.46,21.54 66.71,19.38 66.71,19.38 L65.51,17.25 C65.51,17.25 63.62,19.02 61.01,19.02 C58.31,19.02 55.94,17.34 55.79,14.01 L66.86,14.01 C66.86,14.01 66.95,13.14 66.95,12.75 C66.95,8.82 64.67,5.64 60.38,5.64 C56.06,5.64 52.79,8.76 52.79,13.59 L52.79,13.59 Z M55.88,11.82 C56.3,9.33 58.1,7.95 60.32,7.95 C62.27,7.95 63.89,9.21 63.98,11.82 L55.88,11.82 Z M70.21,17.04 C70.21,20.85 72.64,21.3 74.29,21.3 C74.8,21.3 75.25,21.24 75.25,21.24 L75.25,18.66 C75.25,18.66 75.01,18.69 74.74,18.69 C73.84,18.69 73.12,18.36 73.12,16.53 L73.12,0 L70.21,0 L70.21,17.04 Z M77.13,13.56 C77.13,18.18 80.79,21.54 85.32,21.54 C89.85,21.54 93.51,18.18 93.51,13.56 C93.51,8.97 89.85,5.64 85.32,5.64 C80.79,5.64 77.13,8.97 77.13,13.56 L77.13,13.56 Z M80.1,13.56 C80.1,10.41 82.47,8.16 85.32,8.16 C88.2,8.16 90.54,10.41 90.54,13.56 C90.54,16.74 88.2,19.02 85.32,19.02 C82.47,19.02 80.1,16.74 80.1,13.56 L80.1,13.56 Z M96.86,21.18 L99.77,21.18 L99.77,14.04 L101.96,14.04 L106.52,21.18 L109.91,21.18 L104.3,12.75 L104.3,12.69 L109.34,6 L106.04,6 L101.9,11.58 L99.77,11.58 L99.77,0 L96.86,0 L96.86,21.18 Z M111.31,16.92 C111.31,19.95 113.86,21.54 116.47,21.54 C120.1,21.54 121.33,18.54 121.33,18.54 L121.39,18.54 C121.39,18.54 121.33,19.05 121.33,19.74 L121.33,21.18 L124.03,21.18 L124.03,11.58 C124.03,7.74 121.87,5.64 118.03,5.64 C114.55,5.64 112.36,7.44 112.36,7.44 L113.56,9.57 C113.56,9.57 115.45,8.1 117.79,8.1 C119.71,8.1 121.12,8.94 121.12,11.43 L121.12,11.7 L120.46,11.7 C117.91,11.7 111.31,11.91 111.31,16.92 L111.31,16.92 Z M114.25,16.77 C114.25,14.04 118.21,13.89 120.4,13.89 L121.15,13.89 L121.15,14.37 C121.15,16.62 119.56,19.2 117.1,19.2 C115.21,19.2 114.25,18 114.25,16.77 L114.25,16.77 Z" id="traveloka" fill="#434343"></path>
                <path d="M129.98,15.8 C129.98,20.87 133.85,21.47 135.8,21.47 C136.4,21.47 136.82,21.41 136.82,21.41 L136.82,18.83 C136.82,18.83 136.55,18.89 136.13,18.89 C135.02,18.89 132.89,18.5 132.89,15.47 L132.89,8.72 L136.55,8.72 L136.55,6.38 L132.89,6.38 L132.89,2 L130.07,2 L130.07,6.38 L128,6.38 L128,8.72 L129.98,8.72 L129.98,15.8 Z M138.94,13.76 C138.94,18.26 142.21,21.71 146.98,21.71 C150.61,21.71 152.86,19.55 152.86,19.55 L151.66,17.42 C151.66,17.42 149.77,19.19 147.16,19.19 C144.46,19.19 142.09,17.51 141.94,14.18 L153.01,14.18 C153.01,14.18 153.1,13.31 153.1,12.92 C153.1,8.99 150.82,5.81 146.53,5.81 C142.21,5.81 138.94,8.93 138.94,13.76 L138.94,13.76 Z M142.03,11.99 C142.45,9.5 144.25,8.12 146.47,8.12 C148.42,8.12 150.04,9.38 150.13,11.99 L142.03,11.99 Z M156.54,21.35 L159.45,21.35 L159.45,15.14 C159.45,14.21 159.54,13.28 159.81,12.41 C160.5,10.16 162.21,8.84 164.07,8.84 C164.52,8.84 164.91,8.93 164.91,8.93 L164.91,6.05 C164.91,6.05 164.55,5.99 164.16,5.99 C161.82,5.99 160.05,7.73 159.36,9.95 L159.3,9.95 C159.3,9.95 159.36,9.44 159.36,8.81 L159.36,6.17 L156.54,6.17 L156.54,21.35 Z M166.46,17.09 C166.46,20.12 169.01,21.71 171.62,21.71 C175.25,21.71 176.48,18.71 176.48,18.71 L176.54,18.71 C176.54,18.71 176.48,19.22 176.48,19.91 L176.48,21.35 L179.18,21.35 L179.18,11.75 C179.18,7.91 177.02,5.81 173.18,5.81 C169.7,5.81 167.51,7.61 167.51,7.61 L168.71,9.74 C168.71,9.74 170.6,8.27 172.94,8.27 C174.86,8.27 176.27,9.11 176.27,11.6 L176.27,11.87 L175.61,11.87 C173.06,11.87 166.46,12.08 166.46,17.09 L166.46,17.09 Z M169.4,16.94 C169.4,14.21 173.36,14.06 175.55,14.06 L176.3,14.06 L176.3,14.54 C176.3,16.79 174.71,19.37 172.25,19.37 C170.36,19.37 169.4,18.17 169.4,16.94 L169.4,16.94 Z" id="tera" fill="#1BA0E2"></path>
            </g>
        </g>
    </g>
</svg>